<mxfile host="Electron" modified="2023-12-16T13:11:01.819Z" agent="Mozilla/5.0 (Windows NT 10.0; Win64; x64) AppleWebKit/537.36 (KHTML, like Gecko) draw.io/22.1.2 Chrome/114.0.5735.289 Electron/25.9.4 Safari/537.36" etag="Y_dXJJPVNIiPtli9HeZk" version="22.1.2" type="device">
  <diagram name="第 1 页" id="39-dAQHtX69EaNGJ4TQ-">
    <mxGraphModel dx="613" dy="778" grid="1" gridSize="10" guides="1" tooltips="1" connect="1" arrows="1" fold="1" page="1" pageScale="1" pageWidth="827" pageHeight="1169" math="0" shadow="0">
      <root>
        <mxCell id="0" />
        <mxCell id="1" parent="0" />
        <mxCell id="-GVmx4GfUM1RBV3j3pdC-12" style="edgeStyle=orthogonalEdgeStyle;rounded=0;orthogonalLoop=1;jettySize=auto;html=1;exitX=0.5;exitY=1;exitDx=0;exitDy=0;" edge="1" parent="1" source="-GVmx4GfUM1RBV3j3pdC-1" target="-GVmx4GfUM1RBV3j3pdC-2">
          <mxGeometry relative="1" as="geometry" />
        </mxCell>
        <mxCell id="-GVmx4GfUM1RBV3j3pdC-1" value="启动界面" style="rounded=1;whiteSpace=wrap;html=1;" vertex="1" parent="1">
          <mxGeometry x="230" y="60" width="120" height="60" as="geometry" />
        </mxCell>
        <mxCell id="-GVmx4GfUM1RBV3j3pdC-2" value="登录界面" style="rounded=1;whiteSpace=wrap;html=1;" vertex="1" parent="1">
          <mxGeometry x="230" y="160" width="120" height="60" as="geometry" />
        </mxCell>
        <mxCell id="-GVmx4GfUM1RBV3j3pdC-14" style="edgeStyle=orthogonalEdgeStyle;rounded=0;orthogonalLoop=1;jettySize=auto;html=1;exitX=0.5;exitY=1;exitDx=0;exitDy=0;exitPerimeter=0;entryX=0.5;entryY=0;entryDx=0;entryDy=0;" edge="1" parent="1" source="-GVmx4GfUM1RBV3j3pdC-4" target="-GVmx4GfUM1RBV3j3pdC-6">
          <mxGeometry relative="1" as="geometry" />
        </mxCell>
        <mxCell id="-GVmx4GfUM1RBV3j3pdC-15" value="否" style="edgeLabel;html=1;align=center;verticalAlign=middle;resizable=0;points=[];" vertex="1" connectable="0" parent="-GVmx4GfUM1RBV3j3pdC-14">
          <mxGeometry x="-0.2947" y="-3" relative="1" as="geometry">
            <mxPoint as="offset" />
          </mxGeometry>
        </mxCell>
        <mxCell id="-GVmx4GfUM1RBV3j3pdC-16" style="edgeStyle=orthogonalEdgeStyle;rounded=0;orthogonalLoop=1;jettySize=auto;html=1;exitX=1;exitY=0.5;exitDx=0;exitDy=0;exitPerimeter=0;entryX=0;entryY=0.5;entryDx=0;entryDy=0;" edge="1" parent="1" source="-GVmx4GfUM1RBV3j3pdC-4" target="-GVmx4GfUM1RBV3j3pdC-5">
          <mxGeometry relative="1" as="geometry" />
        </mxCell>
        <mxCell id="-GVmx4GfUM1RBV3j3pdC-17" value="是" style="edgeLabel;html=1;align=center;verticalAlign=middle;resizable=0;points=[];" vertex="1" connectable="0" parent="-GVmx4GfUM1RBV3j3pdC-16">
          <mxGeometry x="-0.0526" y="-2" relative="1" as="geometry">
            <mxPoint as="offset" />
          </mxGeometry>
        </mxCell>
        <mxCell id="-GVmx4GfUM1RBV3j3pdC-4" value="是否注册" style="strokeWidth=2;html=1;shape=mxgraph.flowchart.decision;whiteSpace=wrap;" vertex="1" parent="1">
          <mxGeometry x="240" y="260" width="100" height="100" as="geometry" />
        </mxCell>
        <mxCell id="-GVmx4GfUM1RBV3j3pdC-5" value="注册界面" style="rounded=1;whiteSpace=wrap;html=1;" vertex="1" parent="1">
          <mxGeometry x="400" y="280" width="120" height="60" as="geometry" />
        </mxCell>
        <mxCell id="-GVmx4GfUM1RBV3j3pdC-6" value="账号密码输入" style="rounded=1;whiteSpace=wrap;html=1;" vertex="1" parent="1">
          <mxGeometry x="230" y="400" width="120" height="60" as="geometry" />
        </mxCell>
        <mxCell id="-GVmx4GfUM1RBV3j3pdC-18" style="edgeStyle=orthogonalEdgeStyle;rounded=0;orthogonalLoop=1;jettySize=auto;html=1;exitX=1;exitY=0.5;exitDx=0;exitDy=0;exitPerimeter=0;entryX=0;entryY=0.5;entryDx=0;entryDy=0;" edge="1" parent="1" source="-GVmx4GfUM1RBV3j3pdC-7" target="-GVmx4GfUM1RBV3j3pdC-9">
          <mxGeometry relative="1" as="geometry" />
        </mxCell>
        <mxCell id="-GVmx4GfUM1RBV3j3pdC-19" value="密码错误" style="edgeLabel;html=1;align=center;verticalAlign=middle;resizable=0;points=[];" vertex="1" connectable="0" parent="-GVmx4GfUM1RBV3j3pdC-18">
          <mxGeometry x="0.1297" y="2" relative="1" as="geometry">
            <mxPoint x="-5" y="2" as="offset" />
          </mxGeometry>
        </mxCell>
        <mxCell id="-GVmx4GfUM1RBV3j3pdC-20" style="edgeStyle=orthogonalEdgeStyle;rounded=0;orthogonalLoop=1;jettySize=auto;html=1;exitX=0;exitY=0.5;exitDx=0;exitDy=0;exitPerimeter=0;entryX=1;entryY=0.5;entryDx=0;entryDy=0;" edge="1" parent="1" source="-GVmx4GfUM1RBV3j3pdC-7" target="-GVmx4GfUM1RBV3j3pdC-8">
          <mxGeometry relative="1" as="geometry" />
        </mxCell>
        <mxCell id="-GVmx4GfUM1RBV3j3pdC-21" value="账号错误" style="edgeLabel;html=1;align=center;verticalAlign=middle;resizable=0;points=[];" vertex="1" connectable="0" parent="-GVmx4GfUM1RBV3j3pdC-20">
          <mxGeometry x="-0.2322" relative="1" as="geometry">
            <mxPoint x="-7" as="offset" />
          </mxGeometry>
        </mxCell>
        <mxCell id="-GVmx4GfUM1RBV3j3pdC-23" style="edgeStyle=orthogonalEdgeStyle;rounded=0;orthogonalLoop=1;jettySize=auto;html=1;exitX=0.5;exitY=1;exitDx=0;exitDy=0;exitPerimeter=0;" edge="1" parent="1" source="-GVmx4GfUM1RBV3j3pdC-7" target="-GVmx4GfUM1RBV3j3pdC-22">
          <mxGeometry relative="1" as="geometry" />
        </mxCell>
        <mxCell id="-GVmx4GfUM1RBV3j3pdC-24" value="核查通过" style="edgeLabel;html=1;align=center;verticalAlign=middle;resizable=0;points=[];" vertex="1" connectable="0" parent="-GVmx4GfUM1RBV3j3pdC-23">
          <mxGeometry x="-0.3848" y="-4" relative="1" as="geometry">
            <mxPoint x="4" as="offset" />
          </mxGeometry>
        </mxCell>
        <mxCell id="-GVmx4GfUM1RBV3j3pdC-7" value="账号核查" style="strokeWidth=2;html=1;shape=mxgraph.flowchart.decision;whiteSpace=wrap;" vertex="1" parent="1">
          <mxGeometry x="240" y="500" width="100" height="100" as="geometry" />
        </mxCell>
        <mxCell id="-GVmx4GfUM1RBV3j3pdC-11" style="edgeStyle=orthogonalEdgeStyle;rounded=0;orthogonalLoop=1;jettySize=auto;html=1;exitX=0.5;exitY=0;exitDx=0;exitDy=0;entryX=0;entryY=0.5;entryDx=0;entryDy=0;" edge="1" parent="1" source="-GVmx4GfUM1RBV3j3pdC-8" target="-GVmx4GfUM1RBV3j3pdC-2">
          <mxGeometry relative="1" as="geometry" />
        </mxCell>
        <mxCell id="-GVmx4GfUM1RBV3j3pdC-8" value="弹窗&lt;br&gt;账号不存在" style="shape=parallelogram;html=1;strokeWidth=2;perimeter=parallelogramPerimeter;whiteSpace=wrap;rounded=1;arcSize=12;size=0.23;" vertex="1" parent="1">
          <mxGeometry x="90" y="520" width="100" height="60" as="geometry" />
        </mxCell>
        <mxCell id="-GVmx4GfUM1RBV3j3pdC-10" style="edgeStyle=orthogonalEdgeStyle;rounded=0;orthogonalLoop=1;jettySize=auto;html=1;exitX=0.5;exitY=0;exitDx=0;exitDy=0;entryX=1;entryY=0.5;entryDx=0;entryDy=0;" edge="1" parent="1" source="-GVmx4GfUM1RBV3j3pdC-9" target="-GVmx4GfUM1RBV3j3pdC-6">
          <mxGeometry relative="1" as="geometry" />
        </mxCell>
        <mxCell id="-GVmx4GfUM1RBV3j3pdC-9" value="弹窗&lt;br&gt;密码错误" style="shape=parallelogram;html=1;strokeWidth=2;perimeter=parallelogramPerimeter;whiteSpace=wrap;rounded=1;arcSize=12;size=0.23;" vertex="1" parent="1">
          <mxGeometry x="390" y="520" width="100" height="60" as="geometry" />
        </mxCell>
        <mxCell id="-GVmx4GfUM1RBV3j3pdC-13" style="edgeStyle=orthogonalEdgeStyle;rounded=0;orthogonalLoop=1;jettySize=auto;html=1;exitX=0.5;exitY=1;exitDx=0;exitDy=0;entryX=0.5;entryY=0;entryDx=0;entryDy=0;entryPerimeter=0;" edge="1" parent="1" source="-GVmx4GfUM1RBV3j3pdC-2" target="-GVmx4GfUM1RBV3j3pdC-4">
          <mxGeometry relative="1" as="geometry" />
        </mxCell>
        <mxCell id="-GVmx4GfUM1RBV3j3pdC-22" value="用户首页" style="rounded=1;whiteSpace=wrap;html=1;" vertex="1" parent="1">
          <mxGeometry x="230" y="640" width="120" height="60" as="geometry" />
        </mxCell>
        <mxCell id="-GVmx4GfUM1RBV3j3pdC-25" style="edgeStyle=orthogonalEdgeStyle;rounded=0;orthogonalLoop=1;jettySize=auto;html=1;exitX=0.5;exitY=1;exitDx=0;exitDy=0;entryX=0.5;entryY=0;entryDx=0;entryDy=0;entryPerimeter=0;" edge="1" parent="1" source="-GVmx4GfUM1RBV3j3pdC-6" target="-GVmx4GfUM1RBV3j3pdC-7">
          <mxGeometry relative="1" as="geometry" />
        </mxCell>
      </root>
    </mxGraphModel>
  </diagram>
</mxfile>
